<svg width="20" height="20" viewBox="0 0 20 20" fill="none" xmlns="http://www.w3.org/2000/svg">
<path d="M16.8748 10.4746V9.51839L18.0748 8.46839C18.296 8.27343 18.4412 8.00654 18.4846 7.71489C18.5281 7.42325 18.467 7.12564 18.3123 6.87464L16.8373 4.37464C16.7277 4.18481 16.5701 4.02713 16.3803 3.91743C16.1905 3.80773 15.9752 3.74987 15.756 3.74964C15.6202 3.7486 15.4851 3.76971 15.356 3.81214L13.8373 4.32464C13.5751 4.1504 13.3016 3.9938 13.0185 3.85589L12.6998 2.28089C12.6426 1.99315 12.4861 1.73467 12.2576 1.55071C12.0291 1.36675 11.7431 1.26902 11.4498 1.27464H8.52479C8.23148 1.26902 7.94553 1.36675 7.71701 1.55071C7.48848 1.73467 7.33195 1.99315 7.27479 2.28089L6.95604 3.85589C6.671 3.99377 6.3954 4.15036 6.13104 4.32464L4.64354 3.78714C4.5131 3.75316 4.37803 3.74049 4.24354 3.74964C4.02434 3.74987 3.80905 3.80773 3.61927 3.91743C3.42949 4.02713 3.27189 4.18481 3.16229 4.37464L1.68729 6.87464C1.54141 7.12526 1.4872 7.4188 1.53395 7.705C1.5807 7.99119 1.72549 8.25222 1.94354 8.44339L3.12479 9.52464V10.4809L1.94354 11.5309C1.71933 11.7234 1.57058 11.9891 1.52367 12.2809C1.47676 12.5726 1.53473 12.8716 1.68729 13.1246L3.16229 15.6246C3.27189 15.8145 3.42949 15.9722 3.61927 16.0819C3.80905 16.1916 4.02434 16.2494 4.24354 16.2496C4.37939 16.2507 4.51449 16.2296 4.64354 16.1871L6.16229 15.6746C6.4245 15.8489 6.69803 16.0055 6.98104 16.1434L7.29979 17.7184C7.35695 18.0061 7.51348 18.2646 7.74201 18.4486C7.97053 18.6325 8.25648 18.7303 8.54979 18.7246H11.4998C11.7931 18.7303 12.0791 18.6325 12.3076 18.4486C12.5361 18.2646 12.6926 18.0061 12.7498 17.7184L13.0685 16.1434C13.3536 16.0055 13.6292 15.8489 13.8935 15.6746L15.406 16.1871C15.5351 16.2296 15.6702 16.2507 15.806 16.2496C16.0252 16.2494 16.2405 16.1916 16.4303 16.0819C16.6201 15.9722 16.7777 15.8145 16.8873 15.6246L18.3123 13.1246C18.4582 12.874 18.5124 12.5805 18.4656 12.2943C18.4189 12.0081 18.2741 11.7471 18.056 11.5559L16.8748 10.4746ZM15.756 14.9996L13.6123 14.2746C13.1105 14.6997 12.5369 15.032 11.9185 15.2559L11.4748 17.4996H8.52479L8.08104 15.2809C7.46756 15.0506 6.89712 14.7189 6.39354 14.2996L4.24354 14.9996L2.76854 12.4996L4.46854 10.9996C4.35298 10.3527 4.35298 9.69036 4.46854 9.04339L2.76854 7.49964L4.24354 4.99964L6.38729 5.72464C6.88913 5.29958 7.46267 4.9673 8.08104 4.74339L8.52479 2.49964H11.4748L11.9185 4.71839C12.532 4.94866 13.1025 5.28036 13.606 5.69964L15.756 4.99964L17.231 7.49964L15.531 8.99964C15.6466 9.64661 15.6466 10.3089 15.531 10.9559L17.231 12.4996L15.756 14.9996Z" fill="#878787"/>
<path d="M10 13.75C9.25832 13.75 8.5333 13.5301 7.91661 13.118C7.29993 12.706 6.81928 12.1203 6.53545 11.4351C6.25162 10.7498 6.17736 9.99584 6.32206 9.26841C6.46675 8.54098 6.8239 7.8728 7.34835 7.34835C7.8728 6.8239 8.54098 6.46675 9.26841 6.32206C9.99584 6.17736 10.7498 6.25162 11.4351 6.53545C12.1203 6.81928 12.706 7.29993 13.118 7.91661C13.5301 8.5333 13.75 9.25832 13.75 10C13.755 10.4939 13.6614 10.9837 13.4748 11.441C13.2881 11.8982 13.0121 12.3136 12.6628 12.6628C12.3136 13.0121 11.8982 13.2881 11.441 13.4748C10.9837 13.6614 10.4939 13.755 10 13.75ZM10 7.5C9.66959 7.4923 9.34105 7.55171 9.03426 7.67462C8.72747 7.79753 8.44879 7.9814 8.2151 8.2151C7.9814 8.44879 7.79753 8.72747 7.67462 9.03426C7.55171 9.34105 7.4923 9.66959 7.5 10C7.4923 10.3304 7.55171 10.6589 7.67462 10.9657C7.79753 11.2725 7.9814 11.5512 8.2151 11.7849C8.44879 12.0186 8.72747 12.2025 9.03426 12.3254C9.34105 12.4483 9.66959 12.5077 10 12.5C10.3304 12.5077 10.6589 12.4483 10.9657 12.3254C11.2725 12.2025 11.5512 12.0186 11.7849 11.7849C12.0186 11.5512 12.2025 11.2725 12.3254 10.9657C12.4483 10.6589 12.5077 10.3304 12.5 10C12.5077 9.66959 12.4483 9.34105 12.3254 9.03426C12.2025 8.72747 12.0186 8.44879 11.7849 8.2151C11.5512 7.9814 11.2725 7.79753 10.9657 7.67462C10.6589 7.55171 10.3304 7.4923 10 7.5Z" fill="#878787"/>
</svg>
