<svg width="20" height="20" viewBox="0 0 20 20" fill="none" xmlns="http://www.w3.org/2000/svg">
<path d="M10.0098 0.625C7.5504 0.626311 5.19003 1.59398 3.4375 3.31941V0.625H2.1875V5.625H7.1875V4.375H4.15184C4.90954 3.58523 5.819 2.95668 6.82563 2.52708C7.83225 2.09748 8.9153 1.87569 10.0098 1.875C14.4844 1.875 18.125 5.51562 18.125 9.99023C18.125 14.4648 14.4844 18.1055 10.0098 18.1055C5.53516 18.1055 1.89453 14.4648 1.89453 9.99023H0.644531C0.644529 11.8425 1.19379 13.6532 2.22285 15.1933C3.25192 16.7334 4.71457 17.9338 6.42584 18.6426C8.13712 19.3514 10.0202 19.5369 11.8368 19.1755C13.6535 18.8142 15.3222 17.9222 16.632 16.6125C17.9417 15.3027 18.8337 13.634 19.1951 11.8173C19.5564 10.0006 19.371 8.11759 18.6621 6.40631C17.9533 4.69504 16.7529 3.23239 15.2128 2.20332C13.6727 1.17426 11.862 0.624998 10.0098 0.625Z" fill="#878787"/>
<path d="M9.37441 4.37305L9.35352 11.25H14.3744V9.99996H10.6073L10.6244 4.37688L9.37441 4.37305Z" fill="#878787"/>
</svg>
