<svg width="20" height="20" viewBox="0 0 20 20" fill="none" xmlns="http://www.w3.org/2000/svg">
<path d="M14.6868 5.625C14.5337 7.69023 12.9681 9.375 11.2493 9.375C9.53055 9.375 7.96219 7.69063 7.8118 5.625C7.65555 3.47656 9.17899 1.875 11.2493 1.875C13.3196 1.875 14.8431 3.51562 14.6868 5.625Z" stroke="#878787" stroke-linecap="round" stroke-linejoin="round"/>
<path d="M11.2504 11.875C7.85199 11.875 4.40277 13.75 3.76449 17.2891C3.68637 17.7156 3.92894 18.125 4.37582 18.125H18.1254C18.5723 18.125 18.8137 17.7156 18.7368 17.2891C18.0981 13.75 14.6489 11.875 11.2504 11.875Z" stroke="#878787" stroke-miterlimit="10"/>
<path d="M5.625 9.0625H1.25M3.4375 6.875V11.25V6.875Z" stroke="#878787" stroke-linecap="round" stroke-linejoin="round"/>
</svg>
